<?xml version="1.0" standalone="no"?>
<!DOCTYPE svg PUBLIC "-//W3C//DTD SVG 20010904//EN"
 "http://www.w3.org/TR/2001/REC-SVG-20010904/DTD/svg10.dtd">
<svg version="1.0" xmlns="http://www.w3.org/2000/svg"
 width="227.000000pt" height="282.000000pt" viewBox="0 0 227.000000 282.000000"
 preserveAspectRatio="xMidYMid meet">
<metadata>
Created by potrace 1.15, written by Peter Selinger 2001-2017
</metadata>
<g transform="translate(0.000000,282.000000) scale(0.100000,-0.100000)"
fill="#000000" stroke="none">
<path d="M910 2765 c-347 -69 -660 -305 -795 -599 -62 -133 -70 -179 -68 -396
3 -313 33 -582 88 -801 95 -373 302 -682 535 -796 101 -50 219 -85 362 -109
99 -16 111 -16 207 0 141 24 249 57 361 112 80 39 108 60 180 133 289 294 420
711 437 1386 5 233 4 256 -15 333 -90 354 -431 651 -846 737 -92 19 -352 19
-446 0z m-521 -761 c37 -80 90 -137 156 -169 42 -21 76 -28 174 -35 181 -14
323 -71 387 -156 l25 -32 41 44 c75 81 240 143 384 144 189 0 301 98 360 315
l21 80 32 -100 c44 -140 79 -321 92 -472 11 -145 5 -188 -35 -257 -63 -108
-235 -186 -408 -186 -43 0 -78 -3 -78 -6 0 -3 15 -25 34 -48 44 -53 56 -85 56
-150 0 -37 -7 -67 -24 -98 l-24 -46 48 -31 c55 -36 76 -64 89 -121 20 -90 -25
-163 -132 -214 -98 -47 -204 -67 -387 -73 -232 -8 -410 17 -528 75 -159 78
-175 245 -32 334 l49 31 -18 26 c-24 34 -41 87 -41 125 0 36 38 117 75 162
l25 31 -102 6 c-251 15 -413 131 -426 305 -11 154 52 513 119 677 12 30 12 30
26 -35 7 -36 26 -92 42 -126z"/>
<path d="M541 1625 c-143 -40 -197 -123 -131 -198 106 -122 444 -122 550 0 43
49 41 86 -9 133 -22 21 -61 45 -88 55 -68 24 -250 30 -322 10z"/>
<path d="M1417 1617 c-170 -59 -186 -173 -34 -242 183 -84 479 -25 502 100 9
49 -25 91 -103 128 -60 28 -77 31 -182 34 -101 3 -124 1 -183 -20z"/>
<path d="M1107 1333 c-17 -4 -241 -274 -265 -320 -17 -31 3 -70 42 -82 132
-43 474 -33 528 16 37 33 23 61 -103 218 -67 83 -126 153 -133 156 -20 11 -50
17 -69 12z"/>
<path d="M946 730 c-134 -17 -226 -51 -226 -83 0 -90 503 -131 740 -61 131 39
111 94 -47 130 -81 18 -366 27 -467 14z"/>
</g>
</svg>
